<svg version="1.1" class="page-image" xmlns="http://www.w3.org/2000/svg" xmlns:xlink="http://www.w3.org/1999/xlink" x="0px" y="0px"
      viewBox="0 0 640 480" style="enable-background:new 0 0 640 480;" xml:space="preserve">
      <style type="text/css">
        .st0{display:none;fill:#808080;}
        .st1{
          fill:none;stroke:#FFFFFF;stroke-width:4;stroke-miterlimit:10;
        }
        .st2{
          fill:#FFFFFF;
        }
        .st1,.st2 {
        }
        .boltz {
          opacity: .7;
          <!-- animation: little-shake 2s forwards; -->
        }
        <!-- @keyframes little-shake {
          0% {opacity: 1}
          50% {
            transform: translate(2px, 0);
            opacity: .6;
          }
          55% {
            transform: translate(-2px, 0);
          }
          60% {
            transform: translate(2px, 0);
          }
          65% {
            transform: translate(-2px, 0);
          }
          70% {
            transform: translate(2px, 0);
          }
          75% {
            transform: translate(-2px, 0);
          }
          80% {
            transform: translate(2px, 0);
          }
          85% {
            transform: translate(-2px, 0);
          }
          90% {
            transform: translate(2px, 0);
          }
          95% {
            transform: translate(-2px, 0);
          }
          100% {
            transform: translate(0, 0);
            opacity: 0;
          }
        } -->
        <!-- @keyframes fading-boltz {
          0% {
            opacity: 1;
          }
          100% {
            opacity: 0;
          }
        } -->
      </style>
      <rect x="-126.9" y="-127.4" class="st0" width="886.5" height="732"/>
      <g>
        <path class="st1" d="M495.7,103.9c-7.4-9.5-18.9-15.7-31.9-15.7H176.1c-13,0-24.5,6.2-31.9,15.7c-18.4,5.8-31.8,23-31.8,43.3v200.3
          c0,25,20.4,45.4,45.4,45.4h324.3c25,0,45.4-20.4,45.4-45.4V147.2C527.5,126.9,514.1,109.7,495.7,103.9z"/>
        <g>
          <path class="st2" d="M247.7,162.1c-47.2,0-85.6,38.4-85.6,85.6s38.4,85.6,85.6,85.6s85.6-38.4,85.6-85.6S294.9,162.1,247.7,162.1z
            "/>
          <path class="st2" d="M418.5,172.7c-24.6,0-44.7,20-44.7,44.7c0,24.6,20,44.7,44.7,44.7s44.7-20,44.7-44.7
            C463.2,192.7,443.2,172.7,418.5,172.7z"/>
          <path class="st2" d="M386.5,301.8c-8.2,0-14.9,6.7-14.9,14.9s6.7,14.9,14.9,14.9s14.9-6.7,14.9-14.9S394.7,301.8,386.5,301.8z"/>
          <g>
            <path class="st2" d="M482.1,111.3H157.9c-19.8,0-35.9,16.1-35.9,35.9v200.3c0,19.8,16.1,35.9,35.9,35.9h324.3
              c19.8,0,35.9-16.1,35.9-35.9V147.2C518,127.4,501.9,111.3,482.1,111.3z M391.6,141.4l11.2,12l10.7-10.9l14,11l11.9-11.9
              l19.8,12.5l-1.2,1.9l-18.2-11.5l-12.1,12.1l-14-11l-10.9,11.1l-11.2-12l-12.2,11.2l-1.5-1.6L391.6,141.4z M247.7,346.1
              c-54.3,0-98.4-44.2-98.4-98.4c0-54.3,44.2-98.4,98.4-98.4c54.3,0,98.4,44.1,98.4,98.4C346.1,301.9,301.9,346.1,247.7,346.1z
              M386.5,333.8c-9.4,0-17.1-7.7-17.1-17.1s7.7-17.1,17.1-17.1s17.1,7.7,17.1,17.1S396,333.8,386.5,333.8z M450.5,333.8
              c-9.4,0-17.1-7.7-17.1-17.1s7.7-17.1,17.1-17.1s17.1,7.7,17.1,17.1S460,333.8,450.5,333.8z M418.5,268.7
              c-28.3,0-51.3-23-51.3-51.3c0-28.3,23-51.3,51.3-51.3s51.3,23,51.3,51.3C469.9,245.7,446.8,268.7,418.5,268.7z"/>
            <path class="st2" d="M450.5,301.8c-8.2,0-14.9,6.7-14.9,14.9s6.7,14.9,14.9,14.9s14.9-6.7,14.9-14.9S458.7,301.8,450.5,301.8z"/>
          </g>
        </g>
      </g>
      <g class="boltz">
        <polygon class="st2" points="566.1,233.3 609.4,236.1 601.1,248.9 625.1,258.6 584.2,253 591.4,242.4 	"/>
        <polygon class="st2" points="565.2,324.6 602.4,347 589.1,354.6 606,374.2 572.3,350.4 583.5,344.3 	"/>
        <polygon class="st2" points="561.4,147.9 582.8,110.2 590.7,123.2 609.9,105.8 587,140.2 580.6,129.1 	"/>
      </g>
      <g class="boltz">
        <polygon class="st2" points="28.6,244.6 71.8,248.6 65.5,234.6 90.8,228.8 49.5,228 55,239.5 	"/>
        <polygon class="st2" points="43.1,106.7 59.6,146.9 69,134.9 85.8,154.7 67.5,117.7 59.8,127.8 	"/>
        <polygon class="st2" points="18.4,373.3 57.8,355.2 45.5,346.2 64.5,328.6 28.2,348.4 38.7,355.7 	"/>
      </g>
    </svg>